<svg xmlns="http://www.w3.org/2000/svg" viewBox="0 0 634.07 296.16"><defs><style>.cls-1{fill:#33376c;}</style></defs><title>logo</title><g id="图层_2" data-name="图层 2"><g id="图层_1-2" data-name="图层 1"><path class="cls-1" d="M292,62q-1.91-4.44-4.5-9.39t-5.4-9.3h10.71a76.54,76.54,0,0,1,5.4,8.71c1.73,3.21,3.37,6.53,4.95,10Zm-9.9,41q1.64-4.1,3.18-8.9c1-3.2,2-6.46,2.9-9.75s1.73-6.51,2.45-9.62,1.3-6,1.73-8.49h10.35Q302,70.45,301,75.22t-2.27,9.66q-1.23,4.91-2.59,9.58c-.91,3.12-1.81,6-2.72,8.58Zm10.62-62.72q-2.08-4.62-4.85-9.62a107.45,107.45,0,0,0-5.68-9.17h10.71q2.73,3.82,5.63,8.9t5.27,9.89Zm36-15.25V20.81h10.35v4.26h22.42v6.72H339.07v5.08h22.45V43.5H339.07v5h22.45v6.63H306V48.49h22.71v-5H306V36.87h22.71V31.79H306V25.07Zm15.8,78a18.81,18.81,0,0,0,3.22-5.49,29.28,29.28,0,0,0,1.77-7.49H317.74v13h-9.62V58.75H359.4V86.07a47.31,47.31,0,0,1-.95,10,24.38,24.38,0,0,1-2.5,7ZM317.74,71.36h32V65.82h-32Zm0,12.07h32V78h-32Z"/><path class="cls-1" d="M371.66,101q.72-6.18,1.31-12.71t1-12.84q.47-6.3.73-12.07c.18-3.84.3-7.28.36-10.3H383q-.27,10.35-.95,22.51T380.19,101Zm13.7-51.28H371.93v-8h13.43V32l-12.53.82V24.71l33.4-2.36v8.08l-11.43.82V41.68h12.71v8H394.8V103h-9.44Zm14,47.29q-.09-5.26-.32-11.08t-.54-11.57q-.33-5.76-.73-11.21T396.89,53h7.71q.54,4.81.95,10.21c.28,3.6.53,7.31.77,11.12s.47,7.62.69,11.43.37,7.54.5,11.17Zm35.39-17.79-25.59,2.54V73.09l25.59-2.64V20.72h9.53V69.46l9.53-1v8.71l-9.53,1V103h-9.53ZM418.21,66.73q-1.35-4.8-3.4-10.43c-1.36-3.75-2.83-7.36-4.4-10.8h9.89q2.18,4.89,4.22,10.43t3.59,10.8ZM420.67,44q-1.28-4.89-3.09-10.12t-4.17-10.66h10q2.08,4.81,3.9,9.94T430.56,44Z"/><path class="cls-1" d="M291.24,135.8V121.55h9.17V135.8h8.84v8.26h-8.84v18.51l8.53-1.72v8.8l-8.53,1.82v10a64.71,64.71,0,0,1-1.18,13.07,33.18,33.18,0,0,1-3.27,9.35H285.07a39.27,39.27,0,0,0,4.63-10.07,44.1,44.1,0,0,0,1.54-12.35v-8.17l-10.53,2.18v-8.89l10.53-2.09V144.06H280.71V135.8Zm57.18,68.07q-3-2.09-6.08-4.58t-6.17-5.4a88.76,88.76,0,0,1-12.62,10H309.12q6.08-3.9,11.3-8a114.83,114.83,0,0,0,9.67-8.44,113.78,113.78,0,0,1-10.31-13.93A105.58,105.58,0,0,1,311.3,157h49.28A88.18,88.18,0,0,1,353,173a98.5,98.5,0,0,1-10.75,14.7,128.44,128.44,0,0,0,9.66,8.58q5,4,10.49,7.58ZM346,152.68V131.26H325.18a89.75,89.75,0,0,1-1.08,12.84,21.81,21.81,0,0,1-3.54,8.94h-9.9a28.13,28.13,0,0,0,4.36-8.66,35.05,35.05,0,0,0,1.36-10V123.18h38.39v21.33h6.75v8.17Zm-21.33,12.16a94,94,0,0,0,11.44,16.25,99,99,0,0,0,6.39-8.17,71.76,71.76,0,0,0,4.95-8.08Z"/><path class="cls-1" d="M382.18,137.07l-2.31-3.95q-1-1.77-2.13-3.45c-.73-1.12-1.49-2.25-2.27-3.4l-2.64-3.81h11.08q2.63,3.36,4.85,6.71c1.49,2.24,3.13,4.88,4.95,7.9Zm-8.89,23.05q3-5.44,5.22-10.43t4-9.81h10.8q-1.82,5.82-3.81,10.8a86.48,86.48,0,0,1-4.45,9.44Zm63.17,43.75q-5.71-3.81-11.53-8.21t-11.07-9a37.69,37.69,0,0,1-10,10.16,75.64,75.64,0,0,1-12.48,7.08H373.29q6.07-2.82,12.21-5.81a68.42,68.42,0,0,0,11-6.67,34.8,34.8,0,0,0,8-8.21,18.51,18.51,0,0,0,3.18-10.35h10.43a22.67,22.67,0,0,1-.72,5.81,27.91,27.91,0,0,1-2,5.26h7.81a151.65,151.65,0,0,0,12.34,9.4q7.26,5,16.61,10.57ZM436.19,170h-47v20H379V162.66h67.34v27.41H436.19Zm1.36-9.9a44.45,44.45,0,0,1-6.86-5.76,38.56,38.56,0,0,1-6.3-8.31,42.17,42.17,0,0,1-6.31,8.17,36,36,0,0,1-7.4,5.9h-15a63.83,63.83,0,0,0,8-4.67,50.11,50.11,0,0,0,6.76-5.54,34.45,34.45,0,0,0,5-6.17,24.48,24.48,0,0,0,2.95-6.49H430.1a20.84,20.84,0,0,0,3,6.76,39.85,39.85,0,0,0,5.32,6.31,50.46,50.46,0,0,0,6.71,5.49,60.12,60.12,0,0,0,7.26,4.31Zm-41.3-16a82.25,82.25,0,0,0,4.27-11,87,87,0,0,0,2.81-11.53h9.44q-.18,1.1-.36,2.22c-.13.76-.25,1.53-.37,2.32h39.48c-.12,1.45-.31,3-.59,4.58s-.56,3.19-.86,4.77-.62,3.07-.95,4.49-.62,2.68-.86,3.77h-9.35c.18-.61.39-1.33.63-2.18s.49-1.71.73-2.59.44-1.75.59-2.63.29-1.65.41-2.32h-31q-.83,2.73-1.77,5.31t-1.95,4.77Z"/><path class="cls-1" d="M500.08,173v-3.27q3.9-2.36,7.53-4.85a55.12,55.12,0,0,0,6.27-4.95H473.67v-8.08h59.27a45,45,0,0,1-4.77,5.49q-2.85,2.86-6,5.59c-2.09,1.81-4.17,3.52-6.26,5.12s-4,2.95-5.67,4V173h32.31v8.44H510.25v6a54.61,54.61,0,0,1-.73,8.53,22.29,22.29,0,0,1-2.72,7.9h-13a21.31,21.31,0,0,0,4.67-7.4,25.37,25.37,0,0,0,1.59-9v-6H463.69V173Zm33.13-29.4H473V151h-9.34V135.25h54.45c.61-1.08,1.23-2.25,1.86-3.49s1.24-2.46,1.82-3.68,1.13-2.37,1.68-3.49,1-2.1,1.36-3h10.53q-1.27,3.09-3,6.81t-3.45,6.8h13.62V151h-9.35Zm-58-10.62q-.27-1.19-.72-2.64l-1-3c-.33-1-.69-2-1.09-3s-.77-1.87-1.13-2.72h10.26c.36.73.73,1.59,1.13,2.59s.79,2,1.18,3,.75,2,1.09,3,.62,1.89.86,2.68Zm23.06.18c-.49-1.94-1.09-3.95-1.82-6s-1.42-3.92-2.09-5.49H505c.67,1.39,1.39,3.13,2.18,5.22s1.48,4.19,2.09,6.31Z"/><path class="cls-1" d="M568.15,196.43a36.33,36.33,0,0,0,3.86-9.22,47.16,47.16,0,0,0,1.32-12V161.48h-4.91q1.55-8.25,2.77-16t1.68-14H563v72.43h-8.71V123.73h27.59q-.83,8.53-1.77,15.74t-2.23,14.39h4v21.33a69.12,69.12,0,0,1-1,12.75,36.77,36.77,0,0,1-2.58,8.49Zm18,7.44A75.49,75.49,0,0,0,591.7,190a89.12,89.12,0,0,0,3.13-17.2h-9.89V164.3H634v8.53H623.33v22.6h10.74v8.44h-19.9v-31h-10q-.54,5.44-1.27,9.8t-1.68,8.08c-.63,2.48-1.33,4.79-2.08,6.94s-1.59,4.22-2.5,6.22ZM625.06,136H593.75v8.35H585V127.81h19.24c-.36-1.09-.74-2.19-1.13-3.31s-.77-2.07-1.13-2.86h10.52a24.06,24.06,0,0,1,1.14,2.81c.39,1.15.74,2.27,1,3.36H634v16.52h-9Zm9,11.89v8.26H585.13v-8.26Z"/><path class="cls-1" d="M282.67,225.48h13.47v2.14L285.5,240.83h11v2.4H281.64v-2l10.64-13.21h-9.61Z"/><path class="cls-1" d="M302.67,240.74h11v2.49H299.76V225.39h13.46v2.66H302.67v4.72h9.95v2.57h-9.95Z"/><path class="cls-1" d="M334.25,243.23h-3.94l-6-7.55h-3.6v7.55h-2.91V225.39h8.31c4,.12,6.09,1.8,6.26,5.06,0,2.92-1.57,4.6-4.71,5.06ZM320.7,228.05v5h4.89q3.86,0,3.77-2.66-.08-2.24-3.77-2.32Z"/><path class="cls-1" d="M345.42,225.14q8.15.51,8.75,9.17-.26,8.92-8.92,9.18-8.4-.44-8.75-9.09Q336.94,225.57,345.42,225.14Zm-.26,16q5.74-.26,5.92-6.69-.43-6.18-5.75-6.69c-3.65.29-5.6,2.51-5.83,6.69Q339.76,240.65,345.16,241.09Z"/><path class="cls-1" d="M369,240.74v2.4H356.93v-1.71a19.45,19.45,0,0,1,5.75-6.35q3.76-2.66,3.6-4.71,0-2.58-3.09-2.58-2.4.09-3.17,2.92l-2.74-1.2a6.15,6.15,0,0,1,6.26-4.37c3.54.17,5.43,1.85,5.66,5.06q.42,3.42-4.38,6.51a20.05,20.05,0,0,0-4.29,4Z"/><path class="cls-1" d="M373.5,225.48h2.92v17.75H373.5Z"/><path class="cls-1" d="M389.22,236.37h-4.8v6.86h-3V225.39h8c3.89.17,6,2,6.26,5.41Q395.56,236.29,389.22,236.37Zm-.26-8.32h-4.54v5.75H389q3.69,0,3.69-3C392.53,229,391.3,228.11,389,228.05Z"/><path class="cls-1" d="M407.67,225.14q8.16.51,8.75,9.17-.26,8.92-8.92,9.18-8.4-.44-8.74-9.09Q399.18,225.57,407.67,225.14Zm-.25,16q5.74-.26,5.91-6.69-.42-6.18-5.74-6.69c-3.66.29-5.6,2.51-5.83,6.69Q402,240.65,407.42,241.09Z"/><path class="cls-1" d="M283.44,259.09h2.92v17.75h-2.92Z"/><path class="cls-1" d="M303.45,273.33v-.09a30.47,30.47,0,0,1-.18-3.17v-11h2.83v17.75h-2.91q-5.15-7.54-7.55-11.15c-.63-1.08-1.17-2.11-1.63-3.08h-.08a21.75,21.75,0,0,1,.25,3.51v10.72h-2.83V259.09h3q5.06,7.46,7.37,11.06A18.57,18.57,0,0,1,303.45,273.33Z"/><path class="cls-1" d="M309.3,259.09h3.08l5.32,13.38a5.3,5.3,0,0,1,.26,1.46H318a6.41,6.41,0,0,1,.35-1.55l5.14-13.29h3.18l-7.38,17.75h-2.66Z"/><path class="cls-1" d="M332.56,274.35h11v2.49H329.64V259h13.47v2.66H332.56v4.72h9.94V269h-9.94Z"/><path class="cls-1" d="M361.13,263.64l-3,.85a3.62,3.62,0,0,0-3.94-3.17q-3.6,0-3.69,2.4c-.23,1.15,1.12,2,4,2.49q7.29,1.37,7.12,5.74-.25,5-6.95,5.15t-7.89-5.49l2.92-.86q.42,3.94,4.89,3.78,3.94,0,3.94-2.66.35-2-4.46-2.92-6.94-1.36-6.69-5.23.25-4.8,6.69-5C358,258.81,360.33,260.43,361.13,263.64Z"/><path class="cls-1" d="M379.08,261.66h-5.92v15.18h-2.92V261.66h-6v-2.57h14.84Z"/><path class="cls-1" d="M396.85,259.09h3.52v17.75h-2.75V266.29c0-.85.09-2.14.26-3.85h-.09a16.39,16.39,0,0,1-1,3.08l-4.37,11.32h-2.06l-4.46-11.32c-.4-1.14-.71-2.17-.94-3.08h-.09c.12,1.31.17,2.6.17,3.85v10.55h-2.65V259.09h3.51l4.8,12a9.25,9.25,0,0,0,.52,1.45,2.54,2.54,0,0,0,.17.6c.29-.8.54-1.48.77-2Z"/><path class="cls-1" d="M408.1,274.35h11v2.49H405.19V259h13.46v2.66H408.1v4.72h9.95V269H408.1Z"/><path class="cls-1" d="M435.22,273.33v-.09c-.11-1.14-.17-2.2-.17-3.17v-11h2.83v17.75H435q-5.14-7.54-7.55-11.15c-.63-1.08-1.17-2.11-1.63-3.08h-.09a20.6,20.6,0,0,1,.26,3.51v10.72h-2.83V259.09h3q5.07,7.46,7.38,11.06A17.9,17.9,0,0,1,435.22,273.33Z"/><path class="cls-1" d="M456.08,261.66h-5.92v15.18h-2.91V261.66h-6v-2.57h14.83Z"/><path class="cls-1" d="M481.68,264l-3.09.86a4.76,4.76,0,0,0-4.54-3.43q-5.07.25-5.32,6.6.09,6.44,5.14,6.6,4,.09,5-4.2l3.17.77q-1.54,6-8.06,5.92c-5.43-.12-8.2-3.14-8.32-9.09.12-6,3-9.09,8.58-9.26Q479.53,258.84,481.68,264Z"/><path class="cls-1" d="M494,258.75q8.15.51,8.75,9.17-.25,8.93-8.92,9.18-8.4-.44-8.75-9.09Q485.48,259.18,494,258.75Zm-.26,15.95q5.74-.26,5.92-6.69-.44-6.18-5.74-6.69-5.49.44-5.84,6.69Q488.31,274.27,493.7,274.7Z"/><path class="cls-1" d="M506.5,259.09h3v15.26h8.92v2.49H506.5Z"/><path class="cls-1" d="M521.87,259.09h3v15.26h8.91v2.49H521.87Z"/><path class="cls-1" d="M540.24,274.35h11v2.49H537.33V259h13.46v2.66H540.24v4.72h10V269h-10Z"/><path class="cls-1" d="M563.25,267.15h8.49v6.78q-2.4,3.17-7.89,3.17-8.83-.35-9.18-9.09.35-8.92,8.84-9.26,6,.09,8.06,5.23l-3.09.86a5,5,0,0,0-5.06-3.43q-5.32.42-5.66,6.6c.23,4.11,2.23,6.32,6,6.6,2.35,0,4-.6,5.06-1.8v-3.09h-5.57Z"/><path class="cls-1" d="M578.88,274.35h11v2.49H576V259h13.46v2.66H578.88v4.72h9.94V269h-9.94Z"/><polygon class="cls-1" points="57.6 90.33 182.42 45.96 182.42 21.67 32.34 74.02 32.34 265.56 57.6 283.65 57.6 90.33"/><polygon class="cls-1" points="18.76 65.25 146.17 20.49 146.17 0 0 53.08 0 242.37 18.76 255.82 18.76 65.25"/><polygon class="cls-1" points="145.82 150.99 132.54 155.33 132.54 163.54 145.82 159.21 145.82 150.99"/><path class="cls-1" d="M222.75,47.6,75,101.5V296.16l62-22.63v-70L166.7,192.8l31.27,11v47.45l24.78-9ZM149.93,161.5l-17.39,5.68v10l-4.11,1.34V153l21.5-7Zm-9.17-23-4.27,1.39-8.23-22.75,4.42-1.45,5.87,18.16,6.95-22.35,4.43-1.45Zm15.5-30.46,20.05-6.61v3.63l-15.95,5.22v18.18l15.95-5.22v3.63l-20.05,6.61ZM176.31,141l-15.95,5.26v7.11l15.95-5.22v4l-15.95,5.22v7.11l15.8-5.17v3.64l-19.91,6.51V143.94l20.06-6.59Z"/><polygon class="cls-1" points="195.87 275.5 166.2 264.77 166.2 194.28 195.87 205.01 195.87 275.5"/></g></g></svg>